<svg id="Binary" xmlns="http://www.w3.org/2000/svg" viewBox="0 0 457.5 298.22"><defs><style>.cls-1{fill:#898989;}.cls-2{fill:#aeb47e;}</style></defs><title>fiddle-icon</title><rect class="cls-1" width="63.71" height="63.71"/><rect class="cls-1" y="77.87" width="63.71" height="63.71"/><rect class="cls-1" y="155.74" width="63.71" height="63.71"/><rect class="cls-2" y="234.5" width="63.71" height="63.71"/><rect class="cls-1" x="78.76" width="63.71" height="63.71"/><rect class="cls-1" x="78.76" y="77.87" width="63.71" height="63.71"/><rect class="cls-2" x="78.76" y="156.63" width="63.71" height="63.71"/><rect class="cls-2" x="78.76" y="234.5" width="63.71" height="63.71"/><rect class="cls-1" x="157.51" width="63.71" height="63.71"/><rect class="cls-1" x="157.51" y="77.87" width="63.71" height="63.71"/><rect class="cls-2" x="157.51" y="156.63" width="63.71" height="63.71"/><rect class="cls-1" x="157.51" y="233.62" width="63.71" height="63.71"/><rect class="cls-1" x="236.27" width="63.71" height="63.71"/><rect class="cls-2" x="236.27" y="78.76" width="63.71" height="63.71"/><rect class="cls-2" x="236.27" y="156.63" width="63.71" height="63.71"/><rect class="cls-1" x="236.27" y="233.62" width="63.71" height="63.71"/><rect class="cls-1" x="315.03" width="63.71" height="63.71"/><rect class="cls-1" x="315.03" y="77.87" width="63.71" height="63.71"/><rect class="cls-2" x="315.03" y="156.63" width="63.71" height="63.71"/><rect class="cls-2" x="315.03" y="234.5" width="63.71" height="63.71"/><rect class="cls-2" x="393.79" width="63.71" height="63.71"/><rect class="cls-1" x="393.79" y="77.87" width="63.71" height="63.71"/><rect class="cls-1" x="393.79" y="155.74" width="63.71" height="63.71"/><rect class="cls-2" x="393.79" y="233.62" width="63.71" height="63.71"/></svg>