<svg id="Fireworks" xmlns="http://www.w3.org/2000/svg" viewBox="0 0 442.1 436.03"><defs><style>.cls-1{fill:#aeb47e;}</style></defs><title>fireworks-icon</title><circle class="cls-1" cx="184.82" cy="14.1" r="13.8"/><circle class="cls-1" cx="257.52" cy="422.16" r="13.8"/><circle class="cls-1" cx="146.75" cy="75.35" r="13.8" transform="translate(-46.17 18.33) rotate(-20)"/><circle class="cls-1" cx="354.08" cy="433.65" r="13.8" transform="translate(-156.21 110.84) rotate(-20)"/><circle class="cls-1" cx="91.5" cy="121.5" r="13.8" transform="translate(-85.95 50.84) rotate(-40)"/><circle class="cls-1" cx="409.27" cy="387.38" r="13.8" transform="translate(-182.51 317.33) rotate(-40)"/><path class="cls-1" d="M48.52,195.9a13.71,13.71,0,0,0,18.57-4.78,15.35,15.35,0,0,0,.53-12.74,11.5,11.5,0,0,0-5.31-5.84,13.71,13.71,0,0,0-18.57,4.78,15.35,15.35,0,0,0-.53,12.74A18.36,18.36,0,0,0,48.52,195.9Z" transform="translate(-29.26 -36.4)"/><path class="cls-1" d="M451.8,313.17a13.71,13.71,0,0,0-18.57,4.78,15.35,15.35,0,0,0-.53,12.74,11.5,11.5,0,0,0,5.31,5.84,13.71,13.71,0,0,0,18.57-4.78,15.35,15.35,0,0,0,.53-12.74A13.75,13.75,0,0,0,451.8,313.17Z" transform="translate(-29.26 -36.4)"/><circle class="cls-1" cx="43.05" cy="254.68" r="13.8" transform="translate(-244.49 216.47) rotate(-80)"/><circle class="cls-1" cx="457.56" cy="254.14" r="13.8" transform="translate(98.59 624.23) rotate(-80)"/><circle class="cls-1" cx="55.47" cy="325.94" r="13.8" transform="translate(-85.03 -21.81) rotate(-10)"/><circle class="cls-1" cx="444.87" cy="183.15" r="13.8" transform="translate(-54.31 43.66) rotate(-10)"/><circle class="cls-1" cx="91.54" cy="388.1" r="13.8" transform="translate(-211.04 61.37) rotate(-30)"/><circle class="cls-1" cx="408.8" cy="121.1" r="13.8" transform="translate(-35.03 184.23) rotate(-30)"/><circle class="cls-1" cx="146.76" cy="434.37" r="13.8" transform="translate(-309.57 231.17) rotate(-50)"/><circle class="cls-1" cx="353.64" cy="74.96" r="13.8" transform="translate(39.64 261.27) rotate(-50)"/><circle class="cls-1" cx="214.51" cy="458.63" r="13.8" transform="translate(-319.09 466.95) rotate(-70)"/><circle class="cls-1" cx="286.17" cy="50.2" r="13.8" transform="translate(111.87 265.55) rotate(-70)"/><circle class="cls-1" cx="191.19" cy="50.19" r="11.14"/><circle class="cls-1" cx="251.15" cy="386.08" r="11.14"/><circle class="cls-1" cx="164.7" cy="106.77" r="11.14" transform="translate(-55.84 26.36) rotate(-20)"/><circle class="cls-1" cx="336.13" cy="402.23" r="11.14" transform="translate(-146.55 102.81) rotate(-20)"/><circle class="cls-1" cx="119.53" cy="144.81" r="11.14" transform="translate(-94.37 74.32) rotate(-40)"/><circle class="cls-1" cx="381.24" cy="364.08" r="11.14" transform="translate(-174.09 293.85) rotate(-40)"/><path class="cls-1" d="M84.07,206c5.31,3.18,12.2,1.06,15.39-4.25a10.84,10.84,0,0,0,.53-10.61,12.53,12.53,0,0,0-4.25-4.78c-5.31-3.18-12.2-1.06-15.39,4.25a10.84,10.84,0,0,0-.53,10.61C80.89,203.33,81.95,204.92,84.07,206Z" transform="translate(-29.26 -36.4)"/><path class="cls-1" d="M416.25,302.56c-5.31-3.18-12.2-1.06-15.39,4.25a10.84,10.84,0,0,0-.53,10.61,12.53,12.53,0,0,0,4.25,4.78c5.31,3.18,12.2,1.06,15.39-4.25a10.84,10.84,0,0,0,.53-10.61C420,305.74,418.37,304.15,416.25,302.56Z" transform="translate(-29.26 -36.4)"/><circle class="cls-1" cx="79.66" cy="254.57" r="11.14" transform="translate(-214.13 252.42) rotate(-80)"/><circle class="cls-1" cx="420.96" cy="254.25" r="11.14" transform="translate(68.23 588.28) rotate(-80)"/><circle class="cls-1" cx="89.93" cy="313.17" r="11.14" transform="translate(-82.29 -16.02) rotate(-10)"/><circle class="cls-1" cx="410.42" cy="195.91" r="11.14" transform="translate(-57.05 37.87) rotate(-10)"/><circle class="cls-1" cx="119.73" cy="364.64" r="11.14" transform="translate(-195.54 72.32) rotate(-30)"/><circle class="cls-1" cx="380.61" cy="144.55" r="11.14" transform="translate(-50.54 173.28) rotate(-30)"/><circle class="cls-1" cx="165.08" cy="402.32" r="11.14" transform="translate(-278.48 233.76) rotate(-50)"/><circle class="cls-1" cx="335.66" cy="106.59" r="11.14" transform="translate(8.98 258.8) rotate(-50)"/><circle class="cls-1" cx="220.74" cy="422.54" r="11.14" transform="translate(-281.07 449.06) rotate(-70)"/><circle class="cls-1" cx="279.94" cy="86.29" r="11.14" transform="translate(73.85 283.44) rotate(-70)"/><circle class="cls-1" cx="197.56" cy="85.74" r="9.02"/><circle class="cls-1" cx="244.78" cy="350.53" r="9.02"/><circle class="cls-1" cx="182.77" cy="138.09" r="9.02" transform="translate(-65.46 34.43) rotate(-20)"/><circle class="cls-1" cx="317.56" cy="371.09" r="9.02" transform="translate(-137.02 94.58) rotate(-20)"/><circle class="cls-1" cx="147.27" cy="168.17" r="9.02" transform="translate(-102.9 97.61) rotate(-40)"/><circle class="cls-1" cx="353.51" cy="340.71" r="9.02" transform="translate(-165.56 270.56) rotate(-40)"/><path class="cls-1" d="M119.09,216.06c4.25,2.65,9.55,1.06,12.2-3.18a8.14,8.14,0,0,0,0-8.49,6.41,6.41,0,0,0-3.71-3.71c-4.25-2.65-9.55-1.06-12.2,3.18a8.14,8.14,0,0,0,0,8.49C116.44,213.94,117.5,215.53,119.09,216.06Z" transform="translate(-29.26 -36.4)"/><path class="cls-1" d="M381.23,292.47c-4.25-2.65-9.55-1.06-12.2,3.18a8.14,8.14,0,0,0,0,8.49,6.41,6.41,0,0,0,3.71,3.71c4.25,2.65,9.55,1.06,12.2-3.18a8.14,8.14,0,0,0,0-8.49A24.51,24.51,0,0,0,381.23,292.47Z" transform="translate(-29.26 -36.4)"/><circle class="cls-1" cx="115.8" cy="254.54" r="9.02" transform="translate(-184.23 287.99) rotate(-80)"/><circle class="cls-1" cx="384.81" cy="254.28" r="9.02" transform="matrix(0.17, -0.98, 0.98, 0.17, 38.33, 552.71)"/><circle class="cls-1" cx="123.92" cy="300.96" r="9.02" transform="translate(-79.65 -10.3) rotate(-10)"/><circle class="cls-1" cx="376.95" cy="208.04" r="9.02" transform="translate(-59.66 32.24) rotate(-10)"/><circle class="cls-1" cx="147.27" cy="341.32" r="9.02" transform="translate(-180.19 82.97) rotate(-30)"/><circle class="cls-1" cx="353.07" cy="167.87" r="9.02" transform="translate(-65.89 162.63) rotate(-30)"/><circle class="cls-1" cx="183.09" cy="371" r="9.02" transform="translate(-248.05 236.37) rotate(-50)"/><circle class="cls-1" cx="317.65" cy="137.92" r="9.02" transform="translate(-21.45 256.19) rotate(-50)"/><circle class="cls-1" cx="227.01" cy="386.84" r="9.02" transform="translate(-243.4 431.47) rotate(-70)"/><circle class="cls-1" cx="273.66" cy="121.99" r="9.02" transform="translate(36.18 301.03) rotate(-70)"/><circle class="cls-1" cx="202.86" cy="115.46" r="6.9"/><circle class="cls-1" cx="239.48" cy="320.81" r="6.9"/><circle class="cls-1" cx="198.08" cy="164.03" r="6.9" transform="translate(-73.41 41.23) rotate(-20)"/><circle class="cls-1" cx="302.75" cy="344.97" r="6.9" transform="matrix(0.94, -0.34, 0.34, 0.94, -128.98, 87.94)"/><circle class="cls-1" cx="169.97" cy="187.6" r="6.9" transform="translate(-110.08 116.75) rotate(-40)"/><circle class="cls-1" cx="330.39" cy="321.63" r="6.9" transform="translate(-158.7 251.24) rotate(-40)"/><path class="cls-1" d="M148.81,225.08c3.18,2.12,7.43.53,9.55-2.65a6.77,6.77,0,0,0,0-6.37,14.07,14.07,0,0,0-2.65-3.18c-3.18-2.12-7.43-.53-9.55,2.65a6.77,6.77,0,0,0,0,6.37A14.07,14.07,0,0,0,148.81,225.08Z" transform="translate(-29.26 -36.4)"/><path class="cls-1" d="M351.51,284c-3.18-2.12-7.43-.53-9.55,2.65a6.77,6.77,0,0,0,0,6.37,14.07,14.07,0,0,0,2.65,3.18c3.18,2.12,7.43.53,9.55-2.65a6.77,6.77,0,0,0,0-6.37A3.36,3.36,0,0,0,351.51,284Z" transform="translate(-29.26 -36.4)"/><circle class="cls-1" cx="146.1" cy="254.51" r="6.9" transform="translate(-159.17 317.81) rotate(-80)"/><circle class="cls-1" cx="354.51" cy="254.31" r="6.9" transform="translate(13.27 522.89) rotate(-80)"/><circle class="cls-1" cx="152.53" cy="290.3" r="6.9" transform="translate(-77.36 -5.49) rotate(-10)"/><circle class="cls-1" cx="348.34" cy="218.69" r="6.9" transform="translate(-61.95 27.43) rotate(-10)"/><circle class="cls-1" cx="170.52" cy="321.61" r="6.9" transform="translate(-167.22 91.95) rotate(-30)"/><circle class="cls-1" cx="330.28" cy="187.32" r="6.9" transform="translate(-78.67 153.84) rotate(-30)"/><circle class="cls-1" cx="198.21" cy="345.09" r="6.9" transform="translate(-222.81 238.69) rotate(-50)"/><circle class="cls-1" cx="302.19" cy="164.23" r="6.9" transform="translate(-47.12 253.74) rotate(-50)"/><circle class="cls-1" cx="232.16" cy="357.48" r="6.9" transform="translate(-212.41 416.98) rotate(-70)"/><circle class="cls-1" cx="268.33" cy="151.86" r="6.9" transform="translate(4.61 315.67) rotate(-70)"/><circle class="cls-1" cx="207.11" cy="138.8" r="5.31"/><circle class="cls-1" cx="235.23" cy="297.46" r="5.31"/><circle class="cls-1" cx="209.85" cy="184.77" r="5.31" transform="translate(-79.79 46.51) rotate(-20)"/><circle class="cls-1" cx="290.48" cy="324.41" r="5.31" transform="translate(-122.69 82.51) rotate(-20)"/><circle class="cls-1" cx="188.58" cy="202.65" r="5.31" transform="translate(-115.4 132.24) rotate(-40)"/><circle class="cls-1" cx="312.19" cy="306.23" r="5.31" transform="translate(-153.06 235.93) rotate(-40)"/><path class="cls-1" d="M171.63,231.45a5.37,5.37,0,0,0,7.43-2.12c1.06-1.59,1.06-3.71,0-4.78a4.14,4.14,0,0,0-2.12-2.12,5.37,5.37,0,0,0-7.43,2.12c-1.06,1.59-1.06,3.71,0,4.78A4.14,4.14,0,0,0,171.63,231.45Z" transform="translate(-29.26 -36.4)"/><path class="cls-1" d="M328.69,277.09a5.37,5.37,0,0,0-7.43,2.12c-1.06,1.59-1.06,3.71,0,4.78a4.14,4.14,0,0,0,2.12,2.12,5.37,5.37,0,0,0,7.43-2.12c1.06-1.59,1.06-3.71,0-4.78Z" transform="translate(-29.26 -36.4)"/><circle class="cls-1" cx="169.72" cy="254.78" r="5.31" transform="translate(-139.9 341.29) rotate(-80)"/><circle class="cls-1" cx="330.8" cy="254.57" r="5.31" transform="translate(-6.58 499.75) rotate(-80)"/><circle class="cls-1" cx="174.32" cy="282.42" r="5.31" transform="translate(-75.66 -1.83) rotate(-10)"/><circle class="cls-1" cx="326.02" cy="226.67" r="5.31" transform="translate(-63.67 23.68) rotate(-10)"/><circle class="cls-1" cx="188.48" cy="306.27" r="5.31" transform="translate(-157.14 98.88) rotate(-30)"/><circle class="cls-1" cx="312.32" cy="202.66" r="5.31" transform="translate(-88.74 146.92) rotate(-30)"/><circle class="cls-1" cx="209.77" cy="324.56" r="5.31" transform="translate(-202.95 240.22) rotate(-50)"/><circle class="cls-1" cx="290.63" cy="184.76" r="5.31" transform="translate(-66.98 252.22) rotate(-50)"/><circle class="cls-1" cx="236.24" cy="334" r="5.31" transform="translate(-187.68 405.37) rotate(-70)"/><circle class="cls-1" cx="264.26" cy="175.33" r="5.31" transform="translate(-20.13 327.29) rotate(-70)"/></svg>