
<svg width="40px" height="35px" viewBox="14 16 40 35" version="1.1" xmlns="http://www.w3.org/2000/svg" xmlns:xlink="http://www.w3.org/1999/xlink">
    <!-- Generator: Sketch 41.2 (35397) - http://www.bohemiancoding.com/sketch -->
    <desc>Created with Sketch.</desc>
    <defs>
        <polygon id="path-1" points="38.9207901 33.8402672 38.9207901 0.387384045 0 0.387384045 0 33.8402672 38.9207901 33.8402672"></polygon>
    </defs>
    <g id="Tools-icon" stroke="none" stroke-width="1" fill="none" fill-rule="evenodd" transform="translate(14.490960, 16.000000)">
        <path d="M20.9992064,16.1191837 L25.1432503,12.4474954 C25.3895452,12.8005937 25.6624186,13.1407792 25.9760459,13.456475 C26.2861294,13.767718 26.6201336,14.0388868 26.967427,14.2837848 L23.4692426,18.2782931 C23.4648129,18.2831911 23.461712,18.2889796 23.4577252,18.2943228 L20.9992064,16.1191837 Z M32.7695316,29.4808163 C32.7938953,30.2538033 32.5072896,30.9809276 31.9633146,31.527718 C31.4188966,32.0745083 30.6959592,32.3719481 29.9265092,32.3381076 C29.1570592,32.3136178 28.4531698,31.9810019 27.9441899,31.4003711 L12.7244077,14.0455659 L14.5654175,12.2066048 L31.8366233,27.4877922 C32.4142645,27.9998516 32.7451679,28.707384 32.7695316,29.4808163 L32.7695316,29.4808163 Z M11.969576,31.4097217 C11.4654689,31.984564 10.768667,32.3140631 10.0067477,32.3381076 C9.24261342,32.3710575 8.52853551,32.07718 7.98987624,31.5357328 C7.45121697,30.9938404 7.16771209,30.2742857 7.19163282,29.508423 C7.21555354,28.7430056 7.54379903,28.0421521 8.11523856,27.5358813 L16.3692173,20.2218924 L19.0700443,23.3013729 L11.969576,31.4097217 Z M10.3806197,14.1150278 C9.75823792,13.4858627 8.74205012,13.4818553 8.11479558,14.1074583 L7.7675021,14.4552134 C7.14069054,15.0812616 7.1375897,16.103154 7.76041448,16.7327644 C7.82996177,16.8026716 7.84015023,16.8846011 7.83970725,16.9269017 C7.83970725,16.9696475 7.82907582,17.051577 7.75908555,17.121039 L5.8551731,19.0227829 C5.58628644,19.2908349 5.1783052,19.3335807 4.86246305,19.1283117 C4.20730099,18.7021892 3.61238373,18.2199629 3.09365839,17.6945455 C2.57537604,17.1709091 2.09961941,16.5697959 1.67923483,15.9076809 C1.47635166,15.5888683 1.52197822,15.1787755 1.78997893,14.9107236 L3.69433435,13.0094249 C3.76388164,12.9395176 3.84450334,12.9292764 3.88702908,12.9292764 C3.92866886,12.9430798 4.01106246,12.9395176 4.08105273,13.0107607 C4.70387751,13.6403711 5.72050828,13.6434879 6.34687688,13.0174397 L6.69417035,12.6710204 C6.99760917,12.3673469 7.16594019,11.9634879 7.16726912,11.5333581 C7.16859805,11.1027829 7.00292488,10.6980334 6.70125797,10.3930241 C6.63215366,10.3226716 6.6219652,10.2411874 6.6219652,10.1984416 C6.62240818,10.1556957 6.63259664,10.0742115 6.7025869,10.0047495 L11.0712199,5.64155844 C14.6021846,2.11502783 18.0374663,2.05402597 19.7703899,2.33276438 C19.9059407,2.35458256 20.0025095,2.4703525 19.9989657,2.64311688 C19.9963079,2.7664564 19.8669588,2.90048237 19.7278642,2.92408163 C17.2675734,3.34352505 15.4704183,5.60148423 15.0371874,8.81632653 C14.9330879,9.58797774 14.5822506,10.3061967 14.04935,10.8387384 L10.7673381,14.1163636 C10.6605808,14.2236735 10.487377,14.2223377 10.3806197,14.1150278 L10.3806197,14.1150278 Z M26.9160418,3.8083859 C28.0894862,2.62842301 29.6474341,2.00371058 31.2377193,2.00371058 C31.6961998,2.00371058 32.1573382,2.05580705 32.6127179,2.16133581 L29.6633812,5.12638219 C29.4954932,5.29469388 29.4299327,5.54092764 29.4915064,5.77157699 L30.2649432,8.67339518 C30.3265169,8.90404453 30.5054793,9.08393321 30.7349411,9.1458256 L33.6218181,9.92326531 C33.8512799,9.9851577 34.0958028,9.91925788 34.2632479,9.75005566 L37.2130276,6.78545455 C37.6825825,8.83057514 37.0867793,10.9914657 35.574458,12.5116141 C33.1872583,14.9107236 29.3027985,14.9111688 26.9160418,12.5116141 C24.5288421,10.1125046 24.5288421,6.20749536 26.9160418,3.8083859 L26.9160418,3.8083859 Z M28.1444153,14.9614842 C29.1269368,15.4125417 30.1843215,15.646308 31.2452499,15.646308 C33.1531491,15.646308 35.0614913,14.9165121 36.5140108,13.456475 C38.6549157,11.3044898 39.2870429,8.09721707 38.1251159,5.28489796 C38.0400644,5.0787384 37.8584441,4.92912801 37.6409427,4.88549165 C37.4229984,4.84319109 37.1984093,4.91087199 37.0415957,5.06894249 L33.5952395,8.53313544 L31.449019,7.95517625 L30.8740357,5.79784787 L34.3203918,2.33365492 C34.4772055,2.17647495 34.5458668,1.95027829 34.5024551,1.73120594 C34.4594864,1.51257885 34.3102034,1.33001855 34.1055483,1.2445269 C31.3081525,0.0774768089 28.1169507,0.712430427 25.9760459,2.86352505 C23.7199672,5.13128015 23.2242767,8.5006308 24.4721411,11.261744 L19.99365,15.2295362 L15.4651025,11.2225603 C15.9346575,10.5746939 16.2451839,9.80615955 16.3541561,8.99532468 C16.711638,6.34152134 18.0560713,4.56400742 19.9502383,4.24074212 C20.7192453,4.10983302 21.3110617,3.43525046 21.3278948,2.63599258 C21.3447279,1.83717996 20.7653148,1.13944341 19.9799177,1.01343228 C17.9971555,0.696400742 14.0816873,0.751168831 10.1343249,4.69358071 L5.76613485,9.0567718 C5.46225306,9.36 5.29436501,9.76430427 5.29303608,10.1939889 C5.29170715,10.624564 5.45693734,11.0293135 5.75860425,11.3347681 C5.82815154,11.4046753 5.83834,11.4866048 5.83834,11.5289054 C5.83834,11.5716512 5.82726559,11.6535807 5.75727532,11.7234879 L5.41042482,12.0699072 C5.30366752,12.1772171 5.1295778,12.1767718 5.02370645,12.0690167 C4.72203954,11.7635622 4.32025997,11.5948052 3.89190182,11.5934694 L3.88702908,11.5934694 C3.46088581,11.5934694 3.05999219,11.7595547 2.75743933,12.0614471 L0.853526875,13.9631911 C0.138120033,14.6778479 0.0167445069,15.7732096 0.559390564,16.6272356 C1.03071742,17.3694991 1.56627586,18.0449722 2.15100467,18.6362894 C2.73661944,19.2284972 3.40551376,19.7712801 4.13996859,20.2490538 C4.49745052,20.4819295 4.89834414,20.5959184 5.29613692,20.5959184 C5.8401119,20.5959184 6.3783282,20.3830798 6.79162515,19.9703154 L8.6955376,18.0690167 C8.9994194,17.7653432 9.16730744,17.3614842 9.16863637,16.9313544 C9.17040828,16.5007792 9.00473511,16.0960297 8.7030682,15.7910204 C8.59675387,15.6832653 8.59719685,15.5091651 8.70395416,15.4027458 L9.05124763,15.055436 C9.15800494,14.9481262 9.3312087,14.949462 9.437966,15.0567718 C10.0612338,15.6863822 11.0778645,15.6899443 11.7042331,15.0643414 L11.7799821,14.9886456 L15.4907952,19.2200371 L7.23637343,26.534026 C6.38674475,27.2865306 5.89902776,28.3280148 5.86314668,29.4665677 C5.82770857,30.6046753 6.2489791,31.675102 7.05032336,32.4801484 C7.82021629,33.2535807 8.83330326,33.6756957 9.91593751,33.6756957 C9.96023515,33.6756957 10.0045328,33.6748052 10.0483874,33.6734694 C11.181078,33.6374026 12.2171998,33.1471614 12.9667158,32.2926902 L19.955997,24.3116883 L26.9474931,32.2842301 C27.7014389,33.1435993 28.7446482,33.6374026 29.8844264,33.6734694 C29.9291671,33.6748052 29.9734647,33.6756957 30.0177623,33.6756957 C31.1079272,33.6756957 32.1281018,33.2513544 32.9028675,32.4725788 C33.7090845,31.661744 34.1334558,30.5841929 34.0975747,29.4385158 C34.0621366,28.2928386 33.5708758,27.2442301 32.7150455,26.4854917 L24.4522072,19.1741744 C24.456637,19.1692764 24.4623956,19.1661596 24.4668254,19.1608163 L28.1444153,14.9614842 Z" id="Fill-1" fill="#000000"></path>
        <g id="Group-5" transform="translate(0.000000, 0.057929)">
            <mask id="mask-2" fill="white">
                <use xlink:href="#path-1"></use>
            </mask>
            <g id="Clip-4"></g>
            <path d="M31.2378965,2.168282 C29.6675452,2.168282 28.1884471,2.78587013 27.0725896,3.90750278 C24.7713274,6.22067532 24.7713274,9.98364378 27.0725896,12.2963711 C29.3734089,14.6082078 33.1165593,14.6086531 35.4178215,12.2963711 C36.7688994,10.9383006 37.3735622,9.05125046 37.0754391,7.18067532 L34.4202387,9.84961781 C34.1978646,10.0735881 33.8691761,10.1621967 33.5644084,10.0802672 L30.6770884,9.30282746 C30.3727636,9.22089796 30.1326704,8.97956215 30.0507198,8.67321707 L29.2768401,5.77095362 C29.1957754,5.46460853 29.2834847,5.13510946 29.5067448,4.91069388 L32.1619452,2.24219666 C31.8562915,2.19321707 31.546651,2.168282 31.2378965,2.168282 L31.2378965,2.168282 Z M31.2449841,14.4759629 C29.6201467,14.4759629 27.9961954,13.8543673 26.7594053,12.6111763 C25.5624832,11.4085046 24.9042203,9.80731725 24.9042203,8.10193692 C24.9042203,6.39655659 25.5624832,4.7953692 26.7594053,3.59269759 C27.9589853,2.38690909 29.5492705,1.72301299 31.2378965,1.72301299 C31.715868,1.72301299 32.1951684,1.77822635 32.6625085,1.88642672 L33.0518847,1.97681633 L29.8199291,5.22549907 C29.708299,5.33770686 29.6640014,5.50290167 29.7051982,5.65607421 L30.4790779,8.55789239 C30.5198318,8.71106494 30.6394354,8.83173284 30.7918192,8.87269759 L33.6791392,9.65013729 C33.8310801,9.6902115 33.9958674,9.64657514 34.1066114,9.53481262 L37.3385671,6.28612987 L37.4289342,6.67752134 C37.9228529,8.82772542 37.2880678,11.0460557 35.7310058,12.6111763 C34.4942158,13.8543673 32.8693784,14.4759629 31.2449841,14.4759629 L31.2449841,14.4759629 Z M21.3347167,16.0611206 L23.4379685,17.9223451 L26.6398017,14.2631243 C26.333705,14.0338108 26.0634894,13.8013803 25.8198524,13.5555918 C25.5700138,13.3049054 25.3352363,13.0297291 25.1062175,12.7189314 L21.3347167,16.0611206 Z M23.4902397,18.5430501 L23.3112772,18.4036809 L20.6640504,16.0615659 L25.1828524,12.0577069 L25.3250478,12.2616401 C25.584632,12.6352208 25.8490889,12.9553692 26.1330367,13.2407866 C26.4107829,13.5204156 26.7248532,13.782679 27.0942955,14.0436067 L27.2971786,14.186538 L23.4902397,18.5430501 Z M3.88144757,13.0996364 L1.9460838,15.010731 C1.75250313,15.2039777 1.71972287,15.4996364 1.86590508,15.7302857 C2.27831608,16.3790427 2.74432723,16.9676883 3.25064922,17.4797477 C3.75830014,17.9935881 4.34125705,18.4660186 4.98268684,18.8832356 C5.21126265,19.0315102 5.50584193,19.0007866 5.69897963,18.8070946 L7.60289208,16.9053506 L7.60333506,16.8318813 C6.89412989,16.1149981 6.89811667,14.9519555 7.61130863,14.2390798 L7.95860211,13.8917699 C8.67179407,13.1797848 9.82884836,13.1833469 10.5380535,13.9002301 C10.5513428,13.9135881 10.566847,13.9153692 10.5752635,13.9158145 L13.8931566,10.6226048 C14.391948,10.1247941 14.7201935,9.45199258 14.8176483,8.72843043 C15.2641685,5.41295733 17.1317568,3.08286456 19.6908313,2.64650093 C19.7298133,2.63982189 19.773225,2.59484972 19.7780977,2.57481262 C19.7785407,2.54453432 19.771896,2.50045269 19.735572,2.49466419 C18.0438452,2.22260482 14.6900711,2.28271614 11.2273248,5.74112059 L6.85869178,10.1043117 L6.8582488,10.1777811 C7.20199847,10.5255362 7.39026342,10.9863896 7.38849152,11.4761855 C7.38716259,11.9655362 7.1957968,12.4254991 6.85027523,12.7710278 L6.50342473,13.1174471 C5.79023276,13.8298776 4.63317848,13.8263154 3.92397331,13.1094323 L3.88144757,13.0996364 Z M5.2945422,19.4224564 C5.10450534,19.4224564 4.91269657,19.3681336 4.74215067,19.2572616 C4.07369932,18.8222338 3.46637871,18.3297662 2.93613599,17.7936623 C2.40766518,17.2593395 1.9217201,16.6457588 1.492476,15.9698404 C1.23289184,15.5615288 1.29092175,15.0370019 1.63378546,14.6950353 L3.53814089,12.7932913 C3.66394618,12.6672801 3.81057135,12.6485788 3.88720627,12.6485788 L3.95675356,12.6597106 C4.02054216,12.6712876 4.13660197,12.6931058 4.23804355,12.7955176 C4.77448794,13.33741 5.65069521,13.3409722 6.19112638,12.8017514 L6.53797688,12.4553321 C6.79977592,12.1935139 6.94462919,11.8453135 6.94551515,11.4748497 C6.94684407,11.1039406 6.80420568,10.7548497 6.54417855,10.4916957 C6.41837326,10.3647941 6.40021123,10.2165195 6.40065421,10.1394879 C6.40109718,10.0624564 6.42058814,9.91418182 6.54683641,9.78861596 L10.9150264,5.42542486 C14.5164243,1.82809647 18.0309989,1.76932096 19.8055622,2.05518367 C20.0554009,2.09481262 20.2263898,2.31522078 20.2206311,2.58995176 C20.2157583,2.82104638 20.0111033,3.04323562 19.7652514,3.08553618 C17.4037443,3.48805937 15.6765795,5.67299443 15.2566379,8.78809647 C15.1463367,9.608282 14.7729077,10.3719184 14.2054549,10.9383006 L10.9238859,14.2163711 C10.8313039,14.3094323 10.7072705,14.3610835 10.5752635,14.3610835 L10.5748206,14.3610835 C10.4419277,14.3606382 10.3174513,14.3085417 10.2239833,14.2141447 L10.2239833,14.2141447 C9.68709592,13.6709165 8.81088865,13.6691354 8.27090045,14.2079109 L7.92360698,14.5547755 C7.3831758,15.0944416 7.38096092,15.9751837 7.91740531,16.5179666 C8.04365357,16.6448683 8.0618156,16.7931429 8.06137263,16.8701744 C8.06137263,16.9463154 8.04232464,17.0941447 7.91519043,17.2210464 L6.01127797,19.1227904 C5.81282456,19.3204898 5.55501231,19.4224564 5.2945422,19.4224564 L5.2945422,19.4224564 Z M16.3494606,20.4781892 L8.26159795,27.6447941 C7.73622797,28.1105455 7.43500404,28.7544045 7.41285522,29.4579295 C7.39114938,30.1614545 7.65117651,30.822679 8.14642409,31.3204898 C8.64920228,31.8254249 9.30525028,32.0885788 9.99717938,32.05741 C10.6997399,32.0360371 11.3402837,31.7328089 11.8031941,31.2047199 L18.7747562,23.2437551 L16.3494606,20.4781892 Z M9.88820719,32.5053506 C9.12097211,32.5053506 8.39449086,32.1994508 7.8332398,31.635295 C7.25072587,31.0497662 6.94418622,30.271436 6.96987885,29.4436809 C6.99601445,28.6163711 7.35083853,27.8589685 7.96879057,27.3108423 L16.3888855,19.8494694 L19.3652437,23.2437551 L12.1354263,31.4994879 C11.5910084,32.1206382 10.8375056,32.4768534 10.0135695,32.502679 C9.97192972,32.5044601 9.92984697,32.5053506 9.88820719,32.5053506 L9.88820719,32.5053506 Z M13.0284667,13.9972987 L28.1100403,31.1953692 C28.5782663,31.7292468 29.2258978,32.0355918 29.933331,32.05741 C30.6296899,32.0885788 31.2972553,31.8240891 31.8062351,31.3129202 C32.3067984,30.8097662 32.5703694,30.1409722 32.5477776,29.4298776 C32.5256288,28.7183377 32.221304,28.0677996 31.6901753,27.5971503 L14.5744542,12.4531058 L13.0284667,13.9972987 Z M30.045847,32.5053506 C30.0028783,32.5053506 29.9594666,32.5044601 29.9169409,32.502679 C29.0881321,32.4764082 28.3279847,32.1166308 27.777808,31.4901373 L12.4202601,13.9772616 L14.5562922,11.8435325 L31.9829827,27.2631985 C32.6066934,27.8157774 32.9641754,28.5803043 32.990754,29.4160742 C33.0168896,30.2513989 32.7072491,31.0364082 32.1194194,31.6277254 C31.5528527,32.1967792 30.8210557,32.5053506 30.045847,32.5053506 L30.045847,32.5053506 Z M19.9557312,23.9165566 L27.1133434,32.0787829 C27.8274214,32.8922894 28.8139297,33.3589314 29.8916913,33.3927718 L30.0179395,33.3949981 C31.0474166,33.3949981 32.0162059,32.9911391 32.745788,32.2573358 C33.5090363,31.4901373 33.9103729,30.4713618 33.8762637,29.387577 C33.8425975,28.3042375 33.3779153,27.3121781 32.5685975,26.5948497 L24.140972,19.137039 L24.3194915,18.9371132 L28.0870055,14.6322523 L28.2367315,14.7008237 C29.183815,15.1358516 30.2239235,15.3660557 31.2449841,15.3660557 C33.178133,15.3660557 34.9938931,14.6113247 36.3573744,13.2407866 C38.4340476,11.1533655 39.0475699,8.04138033 37.920195,5.31232653 C37.8634941,5.17429314 37.7430045,5.07499814 37.5972653,5.04605566 C37.452412,5.01933952 37.302686,5.06297588 37.1985865,5.16805937 L33.6614202,8.72353247 L31.2680188,8.07878293 L30.627032,5.6734397 L34.1637554,2.11841187 C34.2687408,2.01288312 34.3139244,1.86282746 34.2851309,1.71677922 C34.2563375,1.57073098 34.1575537,1.44917254 34.0202311,1.39173284 C31.3061148,0.259413729 28.20971,0.876556586 26.1330367,2.9630872 C24.0178246,5.08924675 23.4317668,8.3637551 24.6738726,11.1115102 L24.7416479,11.2620111 L19.9938272,15.4684675 L15.1667136,11.1974471 L15.2858743,11.0331429 C15.7377102,10.4097662 16.0314035,9.67462709 16.134617,8.90742857 C16.5058312,6.15165863 17.9184829,4.30334694 19.9132055,3.96316141 C20.5900734,3.84783673 21.0919656,3.26319852 21.1065838,2.57303154 C21.1212021,1.88509091 20.6215247,1.28397774 19.9450998,1.1753321 C18.0030914,0.865424861 14.166916,0.922864564 10.2904297,4.79358813 L5.92223972,9.15633395 C5.66044069,9.41815213 5.51558741,9.7663525 5.51470146,10.1368163 C5.51337253,10.5077254 5.65601092,10.8568163 5.91559508,11.1199703 C6.04184334,11.246872 6.06000538,11.3951466 6.0595624,11.4721781 C6.0595624,11.5478738 6.04051442,11.6961484 5.9133802,11.8234954 L5.5665297,12.1699147 C5.47306168,12.2634212 5.33175222,12.3159629 5.21657836,12.3150724 C5.08368545,12.3146271 4.95965207,12.2620853 4.86662703,12.1681336 C4.6065999,11.9049796 4.26063535,11.7593766 3.89163603,11.7580408 C3.51997885,11.7580408 3.17401431,11.9014174 2.9135442,12.1614545 L1.00963175,14.0631985 C0.368644937,14.7030501 0.260115726,15.684423 0.746060807,16.4493952 C1.20808516,17.17741 1.73389812,17.8408609 2.3079955,18.4214917 C2.88253585,19.0025677 3.53946981,19.5351095 4.26019237,20.004423 C5.00173482,20.4875399 6.00994905,20.3793395 6.63543168,19.7546271 L8.53934413,17.8533284 C8.80114317,17.5915102 8.94599645,17.2433098 8.94732537,16.872846 C8.9486543,16.5019369 8.80601591,16.152846 8.54598878,15.889692 C8.45252077,15.795295 8.40157848,15.6706197 8.40202146,15.5374842 C8.40246444,15.4047941 8.45429267,15.2796735 8.54820366,15.1866122 L8.89505416,14.8397477 C8.98719325,14.7471317 9.11078366,14.6950353 9.24279061,14.6950353 L9.24323359,14.6950353 C9.3761265,14.6950353 9.50104584,14.7471317 9.59495683,14.8415288 C10.1322872,15.384757 11.0084944,15.3869833 11.5480397,14.8486531 L11.7903477,14.6059814 L15.8032707,19.1815659 L7.38273283,26.6429388 C6.57917368,27.3549239 6.11803528,28.3394137 6.08436908,29.4156289 C6.05114585,30.4918442 6.44938161,31.5034954 7.20687121,32.2649054 C7.93202353,32.9938108 8.89416821,33.3949981 9.9161147,33.3949981 L10.04192,33.3927718 C11.1121509,33.3589314 12.0920146,32.8954063 12.8003339,32.0876883 L19.9557312,23.9165566 Z M30.0179395,33.8402672 L29.878402,33.8380408 C28.6766071,33.8001929 27.5766967,33.2801187 26.7811112,32.373551 L19.9557312,24.5906939 L13.1330091,32.3820111 C12.3427393,33.2827904 11.2499166,33.8001929 10.0556523,33.8380408 L9.9161147,33.8402672 C8.77589352,33.8402672 7.70256177,33.3927718 6.89368691,32.5797106 C6.04893097,31.7305826 5.60418269,30.6018256 5.64183568,29.4018256 C5.67948867,28.2009351 6.19378424,27.1029017 7.08992544,26.308987 L15.178231,19.1423822 L11.765984,15.2516215 C11.0488053,15.8745529 9.95996936,15.8420482 9.28132956,15.1558887 L9.28088658,15.156334 L9.20779548,15.1554434 L8.86005903,15.502308 L8.86005903,15.5757774 C9.20380869,15.9235325 9.39207365,16.3843859 9.39030175,16.8741818 C9.38852984,17.3635325 9.19760702,17.8234954 8.85164248,18.1690241 L6.94773003,20.0703228 C6.5020958,20.5155918 5.91559508,20.7604898 5.29631411,20.7604898 C4.84536416,20.7604898 4.40371672,20.6282449 4.0196562,20.3780037 C3.27235506,19.8917699 2.59061442,19.3391911 1.99392525,18.7354063 C1.39723608,18.1320668 0.85193216,17.4436809 0.372631725,16.6889499 C-0.226272331,15.7458701 -0.092936443,14.5360742 0.697333406,13.7475028 L2.60124586,11.8453135 C2.9454385,11.5020111 3.40214714,11.3127718 3.88676329,11.3127718 C4.38023897,11.3145529 4.83783356,11.5064638 5.18114025,11.8542189 L5.25423135,11.8542189 L5.60108185,11.5077996 L5.60152483,11.433885 C5.25821814,11.0861299 5.06995318,10.6252764 5.07172509,10.1354805 C5.07305402,9.64612987 5.26441981,9.18616698 5.60994138,8.84063822 L9.97813139,4.47789239 C13.9937122,0.467799629 17.991131,0.412141002 20.0146471,0.735851577 C20.9090164,0.8792282 21.5686082,1.67314286 21.5495602,2.58282746 C21.5305122,3.48627829 20.8735783,4.25169573 19.9876255,4.40264193 C18.1935712,4.70854174 16.9173563,6.41481262 16.5736066,8.96709462 C16.4695072,9.74008163 16.1891031,10.4832356 15.759859,11.1288757 L19.9938272,14.8749239 L24.2038746,11.1449054 C22.9746152,8.26045269 23.6138301,4.86572171 25.8198524,2.648282 C28.0236599,0.433513915 31.3101016,-0.219695733 34.190334,0.980749536 C34.4645364,1.09562894 34.6621038,1.33830056 34.7192478,1.63039703 C34.7772777,1.92249351 34.6864675,2.22260482 34.4769397,2.43321707 L31.1209507,5.80657514 L31.6299305,7.71544341 L33.5289703,8.22661224 L36.8849593,4.85325417 C37.0936011,4.64353247 37.3930532,4.55225232 37.6832027,4.60924675 C37.9751241,4.66757699 38.2161033,4.86661224 38.3295052,5.1417885 C39.5259844,8.03781818 38.8748091,11.3403785 36.6705587,13.5555918 C35.2233549,15.0102857 33.2964077,15.8113247 31.2449841,15.8113247 C30.214621,15.8113247 29.1669819,15.5909165 28.2030653,15.1732542 L24.7664546,19.0978553 L32.8614049,26.260898 C33.7637477,27.0606011 34.2811441,28.1657588 34.3192401,29.3737737 C34.3568931,30.5813432 33.909487,31.7172245 33.0589723,32.572141 C32.2456677,33.3901002 31.1656913,33.8402672 30.0179395,33.8402672 L30.0179395,33.8402672 Z" id="Fill-3" fill="#231F1F" mask="url(#mask-2)"></path>
        </g>
    </g>
</svg>