<svg width="26px" height="19px" viewBox="172 2 26 19" version="1.1" xmlns="http://www.w3.org/2000/svg" xmlns:xlink="http://www.w3.org/1999/xlink">
    <!-- Generator: Sketch 41.2 (35397) - http://www.bohemiancoding.com/sketch -->
    <desc>Created with Sketch.</desc>
    <defs></defs>
    <path d="M197.650176,11.4975886 C197.636876,11.1579612 197.497225,10.7656085 197.264473,10.5176568 L189.664421,2.44260142 C189.149043,1.97947324 188.161511,1.78852193 187.586282,2.3238506 C187.019128,2.85062922 187.035753,3.87283623 187.600532,4.40198987 L192.944319,10.0725788 L173.42501,10.0725788 C172.637929,10.0725788 172,10.7105082 172,11.4975886 C172,12.284669 172.637929,12.9225984 173.42501,12.9225984 L192.944319,12.9225984 L187.600532,18.5931873 C187.114604,19.0805406 187.024828,20.1383729 187.586282,20.6713265 C188.147261,21.2042802 189.170418,21.034229 189.664421,20.5525757 L197.264473,12.4775203 C197.5243,12.2010684 197.651126,11.8766412 197.650176,11.4975886" id="Fill-1" stroke="none" fill="#FFFFFF" fill-rule="evenodd"></path>
</svg>