

<svg width="33px" height="42px" viewBox="19 11 33 42" version="1.1" xmlns="http://www.w3.org/2000/svg" xmlns:xlink="http://www.w3.org/1999/xlink">
    <!-- Generator: Sketch 41.2 (35397) - http://www.bohemiancoding.com/sketch -->
    <desc>Created with Sketch.</desc>
    <defs></defs>
    <g id="Face-icon" stroke="none" stroke-width="1" fill="none" fill-rule="evenodd" transform="translate(19.629397, 11.232283)">
        <path d="M19.0662625,28.9619346 L12.7707985,28.9619346 C12.5009929,28.9619346 12.2761549,29.1011747 12.1412521,29.2868281 C12.0063493,29.4724815 11.9164141,29.7509617 12.0063493,29.9830285 C12.4560253,31.8395627 14.0748589,33.1855501 15.9185305,33.1855501 C17.7622021,33.1855501 19.4260034,31.8859761 19.8307118,29.9830285 C19.8756794,29.7509617 19.8307118,29.4724815 19.695809,29.2868281 C19.5609062,29.0547613 19.2911005,28.9619346 19.0662625,28.9619346" id="Fill-1" fill="#000000"></path>
        <path d="M28.8691994,25.8058264 L28.8691994,23.7172253 L28.8691994,21.1644907 C29.139005,21.3037307 29.363843,21.4893842 29.588681,21.7678643 C29.9933894,22.2319979 30.2182274,22.8353715 30.2182274,23.4851585 C30.2182274,24.5062524 29.6786162,25.3881061 28.8691994,25.8058264 L28.8691994,25.8058264 Z M25.9013378,11.6497525 C25.7214674,11.6497525 25.4966294,11.6497525 25.2717914,11.6961659 C19.1561977,13.0885666 12.7258309,13.0885666 6.61023725,11.6961659 L6.52030205,11.6961659 C6.34043165,11.6497525 6.11559365,11.6497525 5.93572325,11.6497525 C4.31688963,11.6497525 2.96786162,13.0421532 2.96786162,14.7130341 L2.96786162,19.2151297 C2.78799122,19.2615431 2.60812082,19.3543698 2.47321802,19.4007831 C2.33831522,18.7974095 2.24838002,18.1940358 2.24838002,17.5906622 L2.24838002,8.81853778 C2.33831522,5.10546924 5.08133884,2.13501441 8.58881167,1.7172942 L8.58881167,3.80589525 L8.58881167,4.08437539 C8.58881167,4.17720211 8.63377927,4.27002882 8.63377927,4.36285553 C8.67874687,4.5020956 8.76868207,4.59492232 8.85861727,4.68774903 C8.90358487,4.68774903 8.90358487,4.73416239 8.94855247,4.73416239 L8.99352007,4.78057575 C9.03848767,4.78057575 9.03848767,4.8269891 9.08345527,4.8269891 C9.12842287,4.87340246 9.17339047,4.87340246 9.26332567,4.87340246 L9.44319607,4.91981582 L9.53313127,4.91981582 C9.71300168,4.91981582 9.84790448,4.87340246 9.98280728,4.78057575 C10.0727425,4.73416239 10.1626777,4.68774903 10.2076453,4.59492232 C10.3425481,4.5020956 10.5224185,4.36285553 10.6573213,4.27002882 C11.0620297,4.03796204 11.4667381,3.80589525 11.9164141,3.66665518 C12.4560253,3.48100176 13.0406041,3.29534833 13.6251829,3.24893497 L13.6251829,3.99154868 L13.6251829,4.8269891 L13.6251829,4.91981582 L13.6251829,5.1518826 C13.6701505,5.43036274 13.8500209,5.66242952 14.1647941,5.75525624 L14.2097617,5.75525624 C14.2547293,5.75525624 14.2996969,5.75525624 14.3446645,5.80166959 L14.8842757,5.89449631 L17.2675585,6.31221652 L26.4859166,7.05483023 L26.5758518,7.05483023 C28.2846206,7.14765694 29.588681,8.54005764 29.6786162,10.2573518 L29.6786162,19.5864365 C29.4537782,19.4471965 29.1839726,19.3543698 28.9591346,19.2615431 L28.9591346,14.6202074 C28.8691994,12.9957399 27.5201714,11.6497525 25.9013378,11.6497525 L25.9013378,11.6497525 Z M27.2503658,19.2151297 L27.2503658,20.0505701 L27.2503658,20.8860105 L27.2503658,24.7847325 L27.2503658,26.0843065 L27.2503658,26.5020267 L27.2503658,26.8733336 C27.2503658,27.1518137 27.2503658,27.4302938 27.2053982,27.708774 C26.7557222,33.7425104 21.8992214,38.5694995 15.9185305,38.5694995 C9.89287208,38.5694995 4.99140364,33.696097 4.63166284,27.5695339 C4.63166284,27.3374671 4.58669524,27.1054003 4.58669524,26.8733336 L4.58669524,26.7340935 L4.58669524,25.9450664 L4.58669524,25.1560394 L4.58669524,23.0674383 L4.58669524,20.7467705 L4.58669524,19.91133 L4.58669524,19.0758896 L4.58669524,15.0843409 L4.58669524,14.7130341 C4.58669524,13.8775937 5.35114444,13.1813933 6.16056125,13.3206334 L6.20552885,13.3206334 C12.5909281,14.7594474 19.2461329,14.7594474 25.6315322,13.3206334 C25.7214674,13.3206334 25.8114026,13.27422 25.9013378,13.27422 C26.665787,13.27422 27.2503658,13.8775937 27.2503658,14.6666207 L27.2503658,19.2151297 Z M2.96786162,23.7172253 L2.96786162,25.6665863 C2.15844482,25.2024527 1.61883361,24.3670123 1.61883361,23.3459184 C1.61883361,22.9281982 1.70876881,22.5568914 1.88863921,22.2319979 C2.11347722,21.721451 2.51818562,21.3037307 3.01282922,21.0252506 L3.01282922,23.7172253 L2.96786162,23.7172253 Z M31.2075146,10.3037652 C31.1175794,7.70461722 29.139005,5.66242952 26.665787,5.4767761 L15.1990489,4.31644218 L15.1990489,2.41349455 C15.1990489,1.94936098 14.8393081,1.57805413 14.3896321,1.57805413 C12.8607337,1.57805413 11.4667381,1.94936098 10.2076453,2.64556133 L10.2076453,0.835440422 C10.2076453,0.371306854 9.84790448,0 9.39822847,0 C4.58669524,0 0.764449206,3.85230861 0.629546405,8.77212443 L0.629546405,17.5906622 C0.629546405,18.6117561 0.809416806,19.5400232 1.07922241,20.4682903 C0.404708403,21.2573174 0,22.2319979 0,23.3459184 C0,25.2952794 1.25909281,26.9661603 3.01282922,27.4767072 C3.28263483,34.5779508 8.94855247,40.2867937 15.9185305,40.2867937 C22.843541,40.2867937 28.5094586,34.6707775 28.8691994,27.6159473 C30.6229358,27.1054003 31.8820286,25.4345195 31.8820286,23.4851585 C31.8820286,22.6497181 31.6571906,21.860691 31.2524822,21.210904 C31.2075146,19.2615431 31.2075146,10.3965919 31.2075146,10.3037652 L31.2075146,10.3037652 Z" id="Fill-3" fill="#000000"></path>
        <path d="M28.3211793,20.7270912 C28.2622717,21.0116051 28.2069616,21.2970472 28.1507521,21.5783122 C28.0441789,22.1018548 27.9394044,22.6253975 27.8364285,23.1498684 C27.406988,25.3294397 22.9686858,25.8130668 21.0166423,25.1827735 C20.9321032,25.1553896 20.8489131,25.1224361 20.7693205,25.0853054 C20.2517434,24.8420994 19.8348937,24.4048856 19.5210199,23.982524 C19.141943,23.471513 18.8496536,22.8992363 18.6023318,22.3320651 C18.449442,21.9779312 18.3167876,21.5718143 18.1513068,21.2195369 C18.0195517,20.2100464 18.3707487,19.5732552 18.7457785,19.1931298 C20.7054665,18.7322451 26.8102679,18.1938502 27.9753784,19.3179817 C28.2712652,19.6024956 28.4326989,20.173844 28.3211793,20.7270912 M13.7210988,21.2376381 C13.5601148,21.5913079 13.4319571,21.9978889 13.2817653,22.3529511 C13.0411887,22.9229071 12.7551947,23.4965762 12.3819637,24.0117645 C12.0730362,24.4369108 11.6606833,24.8783018 11.1458043,25.1247568 C11.065762,25.1628157 10.9843706,25.1966975 10.8993819,25.2245455 C8.95318413,25.8715477 4.51038522,25.4227305 4.05801116,23.2464082 C3.94918957,22.7233297 3.83766992,22.2002511 3.72659994,21.6771726 C3.66634336,21.3977642 3.6074358,21.1123221 3.54583019,20.8282723 L3.54627987,20.8292006 C3.42891443,20.2764175 3.58360297,19.7036767 3.87679173,19.4154497 C5.03111003,18.2824997 11.1417572,18.7707682 13.1050427,19.2163364 C13.4836699,19.5922846 13.8425113,20.2272194 13.7210988,21.2376381 M29.2947278,18.0870995 C27.5499849,17.6280714 19.7503547,17.5278185 18.7570204,18.0170153 C18.6459504,18.0713189 16.6925578,18.5215285 16.6930075,18.5252416 L15.9204641,18.575368 L15.1488201,18.5312753 C15.1506188,18.5280264 13.1900314,18.0935973 13.0794111,18.0397578 C12.0784324,17.5584513 4.23383448,17.7236829 2.52731404,18.2012763 L2.52551534,18.1998839 C2.11720953,18.2212341 1.72374302,18.2583648 1.70980307,18.3214869 C1.59783374,18.4755793 1.7336359,19.6586557 1.77365706,19.708318 C1.80783244,19.7310606 1.97196418,19.7784022 2.22962853,19.843845 C2.26964969,19.9204271 2.3087715,20.0178951 2.3406985,20.1385698 C2.46660778,20.6189481 2.90324318,22.693161 3.05163626,23.401893 C3.63306733,26.195977 8.70766103,26.8968187 11.2645188,26.0474543 C13.572256,25.2807056 14.4257411,22.036412 14.7207286,21.4548526 C14.7782871,21.3406758 14.8299998,21.157343 14.8763164,20.9368796 C15.2468495,20.7475131 15.6996732,20.559539 15.931706,20.6310156 C16.1637388,20.5586107 16.6179116,20.7424076 16.9911427,20.928061 C17.037909,21.1485245 17.0923198,21.3318572 17.1512274,21.44557 C17.4529599,22.0234163 18.3428688,25.2626044 20.6578008,26.0098595 C23.2241018,26.8378738 28.291051,26.0947959 28.8419041,23.2969988 C28.9813037,22.5873385 29.3959049,20.5094126 29.5168678,20.0281061 C29.5451974,19.9120727 29.5861179,19.8220307 29.6310855,19.7528748 C29.9337174,19.6749004 30.1266284,19.6192044 30.1639515,19.5927488 C30.2044224,19.5430865 30.3267343,18.3590817 30.2138656,18.2059177 C30.1967779,18.13769 29.738558,18.1033441 29.2947278,18.0870995" id="Fill-5" fill="#000000"></path>
    </g>
</svg>