
<svg width="23px" height="41px" viewBox="24 11 23 41" version="1.1" xmlns="http://www.w3.org/2000/svg" xmlns:xlink="http://www.w3.org/1999/xlink">
    <!-- Generator: Sketch 41.2 (35397) - http://www.bohemiancoding.com/sketch -->
    <desc>Created with Sketch.</desc>
    <defs>
        <polygon id="path-1" points="21.4721123 19.9034905 21.4721123 39.806981 0 39.806981 0 19.9034905 0 0 21.4721123 0"></polygon>
    </defs>
    <g id="Repo-icon" stroke="none" stroke-width="1" fill="none" fill-rule="evenodd" transform="translate(24.839196, 11.848424)">
        <mask id="mask-2" fill="white">
            <use xlink:href="#path-1"></use>
        </mask>
        <g id="Clip-2"></g>
        <path d="M3.21952903,34.9418927 C4.05961148,34.9418927 4.72197592,35.6243567 4.72197592,36.4899316 C4.72197592,37.3555065 4.05961148,38.0379705 3.21952903,38.0379705 C2.37944659,38.0379705 1.71708215,37.3555065 1.71708215,36.4899316 C1.71708215,35.6243567 2.37944659,34.9418927 3.21952903,34.9418927 L3.21952903,34.9418927 Z M18.2525833,18.3557612 C19.0926657,18.3557612 19.7550301,19.0382252 19.7550301,19.9038001 C19.7550301,20.769375 19.0926657,21.451839 18.2525833,21.451839 C17.4125008,21.451839 16.7501364,20.769375 16.7501364,19.9038001 C16.7501364,19.0382252 17.4125008,18.3557612 18.2525833,18.3557612 L18.2525833,18.3557612 Z M18.2525833,10.0626954 C19.0926657,10.0626954 19.7550301,10.7451594 19.7550301,11.6107343 C19.7550301,12.4763093 19.0926657,13.1587733 18.2525833,13.1587733 C17.4125008,13.1587733 16.7501364,12.4763093 16.7501364,11.6107343 C16.7501364,10.7451594 17.4125008,10.0626954 18.2525833,10.0626954 L18.2525833,10.0626954 Z M18.2525833,1.76962966 C19.0926657,1.76962966 19.7550301,2.45209368 19.7550301,3.3176686 C19.7550301,4.18324351 19.0926657,4.86570754 18.2525833,4.86570754 C17.4125008,4.86570754 16.7501364,4.18324351 16.7501364,3.3176686 C16.7501364,2.45209368 17.4125008,1.76962966 18.2525833,1.76962966 L18.2525833,1.76962966 Z M3.21952903,1.76962966 C4.05961148,1.76962966 4.72197592,2.45209368 4.72197592,3.3176686 C4.72197592,4.18324351 4.05961148,4.86570754 3.21952903,4.86570754 C2.37944659,4.86570754 1.71708215,4.18324351 1.71708215,3.3176686 C1.71708215,2.45209368 2.37944659,1.76962966 3.21952903,1.76962966 L3.21952903,1.76962966 Z M3.21952903,0.00044229684 C1.45179296,0.00044229684 0,1.49629021 0,3.3176686 C0,4.83253527 1.00578087,6.11873448 2.36098796,6.50972489 L2.36098796,33.2978753 C1.00578087,33.6888657 0,34.9746226 0,36.4899316 C0,38.31131 1.45179296,39.8071579 3.21952903,39.8071579 C4.98726511,39.8071579 6.43905807,38.31131 6.43905807,36.4899316 C6.43905807,34.9874492 5.45044802,33.710096 4.11241175,33.3071635 C4.26523206,31.06693 4.98898219,30.1336837 6.02738762,29.5830241 C7.17783266,28.9735391 8.94556874,28.9222327 10.8223395,28.9222327 C12.6991103,28.9222327 14.6844866,28.9766352 16.3569246,28.0902723 C17.844347,27.3020993 18.8810353,25.6788699 19.0699144,23.1064715 C20.4457264,22.7300769 21.4721123,21.4337049 21.4721123,19.9033578 C21.4721123,18.3884911 20.4663314,17.1027342 19.1111243,16.7113015 L19.1111243,14.8023483 C20.4663314,14.4113579 21.4721123,13.125601 21.4721123,11.610292 C21.4721123,10.0954254 20.4663314,8.80966846 19.1111243,8.41823576 L19.1111243,6.50928259 C20.4663314,6.11829219 21.4721123,4.83253527 21.4721123,3.3172263 C21.4721123,1.49584791 20.0203193,0 18.2525833,0 C16.784478,0 15.5383057,1.03320542 15.1562549,2.42599817 L10.3664542,2.43970937 L10.3664542,1.40208098 L8.7566897,2.35921134 L7.14692518,3.3172263 L8.7566897,4.27524126 L10.3664542,5.23237162 L10.3664542,4.20889673 L15.1528207,4.19518553 C15.4541686,5.31198505 16.3105634,6.19657873 17.3940422,6.50928259 L17.3940422,8.41823576 C16.0388351,8.80966846 15.0330542,10.0954254 15.0330542,11.610292 C15.0330542,13.125601 16.0388351,14.4113579 17.3940422,14.8023483 L17.3940422,16.7113015 C16.0388351,17.1027342 15.0330542,18.3884911 15.0330542,19.9033578 C15.0330542,21.4062825 16.0225228,22.6845203 17.3614176,23.0870105 C17.2257681,25.1520944 16.5470914,25.9995351 15.572218,26.5161379 C14.4574024,27.1066041 12.7016859,27.1530453 10.8227688,27.1530453 C8.94342238,27.1530453 6.93958751,27.1101425 5.24311035,28.0088897 C4.81727397,28.2344611 4.42620852,28.5254924 4.07849938,28.8859643 L4.07849938,6.50928259 C5.43370647,6.11829219 6.43948734,4.83209298 6.43948734,3.3172263 C6.43948734,1.49584791 4.98769438,0 3.2199583,0 L3.21952903,0.00044229684 Z" id="Fill-1" fill="#000000" mask="url(#mask-2)"></path>
    </g>
</svg>